<?xml version="1.0" standalone="no"?>
<!DOCTYPE svg PUBLIC "-//W3C//DTD SVG 20010904//EN"
 "http://www.w3.org/TR/2001/REC-SVG-20010904/DTD/svg10.dtd">
<svg version="1.0" xmlns="http://www.w3.org/2000/svg"
 width="512.000000pt" height="512.000000pt" viewBox="0 0 512.000000 512.000000"
 preserveAspectRatio="xMidYMid meet">
<metadata>
Created by potrace 1.11, written by Peter Selinger 2001-2013
</metadata>
<g transform="translate(0.000000,512.000000) scale(0.100000,-0.100000)"
fill="#000000" stroke="none">
<path d="M2350 5116 c-3 -2 -32 -7 -65 -10 -33 -3 -71 -8 -85 -10 -14 -2 -47
-7 -75 -10 -57 -8 -335 -78 -380 -97 -16 -6 -34 -13 -40 -14 -10 -1 -21 -5
-92 -36 -24 -10 -43 -16 -43 -14 0 6 -242 -116 -305 -154 -131 -79 -304 -204
-395 -287 -132 -119 -272 -269 -335 -359 -11 -15 -28 -36 -37 -47 -10 -10 -18
-22 -18 -27 0 -5 -4 -11 -8 -13 -4 -1 -27 -32 -50 -68 -23 -36 -47 -71 -53
-79 -13 -15 -179 -338 -178 -346 0 -3 -12 -38 -27 -78 -16 -40 -29 -74 -29
-77 -1 -3 -10 -32 -20 -65 -10 -33 -20 -64 -21 -70 -2 -5 -5 -19 -8 -30 -35
-137 -56 -235 -62 -295 -1 -14 -6 -56 -11 -95 -15 -131 -8 -547 11 -641 2 -12
7 -43 11 -70 3 -27 17 -92 31 -144 14 -52 26 -104 28 -115 15 -100 175 -476
258 -605 12 -19 22 -37 23 -40 1 -16 209 -293 266 -356 257 -282 530 -485 859
-637 91 -42 302 -121 355 -132 38 -8 60 -13 143 -34 46 -12 100 -24 120 -26
21 -2 69 -9 107 -15 112 -18 438 -24 561 -11 60 6 134 14 164 17 30 3 60 10
66 15 6 5 13 6 17 3 3 -3 42 4 86 15 45 12 89 22 98 24 10 1 24 6 31 10 6 5
12 5 12 1 0 -3 7 -1 15 6 8 7 15 10 15 7 0 -4 19 1 43 9 23 9 49 17 57 19 14
3 92 33 150 58 14 6 27 11 30 12 13 3 107 46 120 55 8 5 29 16 45 23 17 8 60
32 96 53 35 21 76 45 91 53 15 8 37 23 48 33 11 10 20 16 20 12 0 -4 12 3 28
17 15 14 49 41 76 60 225 159 505 467 656 719 24 41 48 78 53 81 5 3 8 9 7 13
-1 4 19 46 43 94 52 102 96 208 142 347 37 111 87 312 89 356 0 16 3 29 6 29
3 0 6 10 6 23 1 12 7 83 14 157 12 128 9 467 -6 545 -3 17 -7 44 -9 60 -9 69
-16 108 -36 192 -12 48 -22 93 -23 98 -1 6 -5 16 -9 23 -5 6 -6 12 -3 12 3 0
-6 32 -20 71 -14 39 -27 78 -29 87 -8 38 -86 215 -143 325 -69 132 -132 232
-204 324 -26 35 -48 67 -48 72 0 5 -3 11 -7 13 -5 2 -35 35 -68 73 -137 160
-309 314 -498 447 -45 32 -89 64 -97 70 -8 7 -15 11 -15 9 0 -3 -19 8 -42 22
-24 15 -45 27 -47 27 -3 0 -27 13 -53 28 -26 16 -52 30 -58 31 -5 2 -26 11
-45 21 -35 18 -206 89 -225 94 -5 1 -47 14 -92 29 -46 15 -93 29 -105 31 -13
3 -61 14 -107 26 -46 11 -102 23 -125 25 -41 6 -76 11 -131 20 -40 7 -510 17
-515 11z"/>
</g>
</svg>
